<svg width="20" height="20" viewBox="0 0 20 20" fill="none" xmlns="http://www.w3.org/2000/svg">
<path d="M19.7485 0.242731C19.2291 -0.276918 18.3902 0.143044 17.7619 0.523045C17.1151 0.914334 16.2637 1.54508 15.2314 2.39781C13.0308 4.21563 10.5277 6.59763 8.50454 8.62091L8.50262 8.6197C7.36575 9.76728 6.28442 10.89 5.02028 12.3521C4.43668 12.2641 3.77496 12.339 3.16106 12.5964L3.14699 12.6026C1.8834 13.1718 1.05789 14.4372 1.04395 15.8262V15.8321C1.04395 17.3728 0.775704 18.6116 0.510782 19.039L0 19.8627L0.966719 19.9321C1.20391 19.9492 1.45242 19.9579 1.70863 19.9579C3.59078 19.9579 5.88598 19.4852 7.1236 18.3498L7.12696 18.3467C7.76501 17.7521 8.07516 16.9296 8.07516 15.8321C8.07516 15.7009 8.06723 15.5707 8.05161 15.4395C9.50958 14.1787 10.6324 13.1036 11.8012 11.9562L11.799 11.9524C14.1866 9.56502 16.3148 7.05368 17.8394 4.95458C18.6063 3.89872 19.201 2.96727 19.5593 2.26098C19.9267 1.5368 20.2364 0.730623 19.7485 0.242731ZM6.32961 17.4879C5.49883 18.2485 3.67547 18.7623 1.86293 18.7864C2.08434 18.0088 2.21551 16.9521 2.21574 15.8352C2.22617 14.9048 2.77731 14.0577 3.62125 13.6742C4.12239 13.4659 4.62618 13.4341 5.15926 13.5821C5.22368 13.5821 5.76489 13.7177 6.21934 14.1722C7.19114 15.1439 7.05262 16.8123 6.32961 17.4879ZM7.67899 14.209C7.51583 13.8915 7.30348 13.599 7.04801 13.3435C6.80403 13.0996 6.53231 12.8986 6.23559 12.7413C6.99786 11.8745 7.82458 10.9834 8.6688 10.1194C8.97591 10.3397 9.2663 10.5863 9.53575 10.8558L9.54149 10.8615C9.8263 11.1386 10.0846 11.4441 10.3127 11.7733C9.42766 12.6319 8.54559 13.4472 7.67899 14.209ZM16.5765 4.69329C15.0651 6.71802 13.0958 8.98591 11.1559 10.9378C10.9159 10.6113 10.6503 10.3056 10.3615 10.0243C10.0926 9.75564 9.80548 9.50673 9.50364 9.27935C11.6654 7.12317 13.802 5.13618 15.5332 3.67286C17.2916 2.18656 18.2246 1.58312 18.6966 1.33836C18.2887 2.32547 17.2158 3.8368 16.5765 4.69329Z" fill="#103B66"/>
</svg>
