<svg width="20" height="20" viewBox="0 0 20 20" fill="none" xmlns="http://www.w3.org/2000/svg">
<path d="M14.9079 10.2992H15.3052V10.8463L14.7403 10.826L14.7607 10.2992H14.9079L14.9079 10.2992ZM1.19039 10.2992H1.21832V10.8463L0.654319 10.8913C0.638658 10.6951 0.629233 10.4977 0.626136 10.2992H1.19039ZM2.38538 15.5367C2.1777 15.2539 1.98743 14.9609 1.81508 14.6591H2.11633H2.83745V15.2063L2.38538 15.5367ZM8.53035 19.2632L7.98829 18.5775C8.36449 18.9211 8.77301 19.1769 9.2078 19.3213L9.29232 19.3493C9.03608 19.3307 8.78193 19.3019 8.53035 19.2632ZM11.4587 19.2649C11.2106 19.3027 10.9601 19.331 10.7075 19.3493L10.7922 19.3212C11.2184 19.1797 11.6194 18.9311 11.9894 18.5977L11.4587 19.2649ZM16.6678 16.7326C16.6722 16.7283 16.6765 16.724 16.6808 16.7197C17.0437 16.3611 17.3726 15.9781 17.6672 15.575L18.3935 14.5812H18.3065L18.4407 14.3176C18.9806 13.2568 19.3088 12.0989 19.4047 10.896L19.4585 10.2213H19.4346V10.1536V9.67422V8.57051V8.12276L19.8935 8.20211L20 7.58625V10.1536C20 12.7837 18.9598 15.2563 17.0711 17.1161C15.1823 18.9758 12.6711 20 10 20C7.3289 20 4.81767 18.9758 2.92893 17.1161C1.0402 15.2563 0 12.7837 0 10.1536L16.6678 16.7326ZM2.93195 7.92707L2.76143 7.87925L2.93195 7.92707Z" fill="#103B66" stroke="#103B66" stroke-width="1.25"/>
</svg>
