<svg width="20" height="20" viewBox="0 0 20 20" fill="none" xmlns="http://www.w3.org/2000/svg">
<path d="M9.99984 18.3337C14.6022 18.3337 18.3332 14.6027 18.3332 10.0003C18.3332 5.39795 14.6022 1.66699 9.99984 1.66699C5.39746 1.66699 1.6665 5.39795 1.6665 10.0003C1.6665 14.6027 5.39746 18.3337 9.99984 18.3337Z" stroke="#103B66" stroke-width="1.25" stroke-linecap="round" stroke-linejoin="round"/>
<path d="M7.57471 7.4995C7.77063 6.94255 8.15733 6.47292 8.66634 6.17378C9.17534 5.87463 9.77379 5.76528 10.3557 5.86509C10.9376 5.9649 11.4654 6.26743 11.8456 6.7191C12.2258 7.17077 12.4339 7.74243 12.433 8.33283C12.433 9.9995 9.93304 10.8328 9.93304 10.8328" stroke="#103B66" stroke-width="1.25" stroke-linecap="round" stroke-linejoin="round"/>
<path d="M10 14.167H10.0083" stroke="#103B66" stroke-width="1.25" stroke-linecap="round" stroke-linejoin="round"/>
</svg>
