<svg width="20" height="20" viewBox="0 0 20 20" fill="none" xmlns="http://www.w3.org/2000/svg">
<path fill-rule="evenodd" clip-rule="evenodd" d="M9.48822 1.00855C9.78915 0.774495 10.2105 0.774495 10.5115 1.00855L18.0115 6.84188C18.2144 6.99976 18.3332 7.24252 18.3332 7.49967V16.6663C18.3332 17.3294 18.0698 17.9653 17.6009 18.4341C17.1321 18.9029 16.4962 19.1663 15.8332 19.1663H4.1665C3.50346 19.1663 2.86758 18.9029 2.39874 18.4341C1.9299 17.9653 1.6665 17.3294 1.6665 16.6663V7.49967C1.6665 7.24252 1.78523 6.99976 1.98822 6.84188L9.48822 1.00855ZM8.33317 17.4997H11.6665V10.833H8.33317V17.4997ZM13.3332 17.4997V9.99967C13.3332 9.53944 12.9601 9.16634 12.4998 9.16634H7.49984C7.0396 9.16634 6.6665 9.53944 6.6665 9.99967V17.4997H4.1665C3.94549 17.4997 3.73353 17.4119 3.57725 17.2556C3.42097 17.0993 3.33317 16.8874 3.33317 16.6663V7.90724L9.99984 2.72206L16.6665 7.90724V16.6663C16.6665 16.8874 16.5787 17.0993 16.4224 17.2556C16.2661 17.4119 16.0542 17.4997 15.8332 17.4997H13.3332Z" fill="#21B8F9"/>
</svg>
