<svg width="20" height="20" viewBox="0 0 20 20" fill="none" xmlns="http://www.w3.org/2000/svg">
<path fill-rule="evenodd" clip-rule="evenodd" d="M5.83317 5.00033C5.83317 4.54009 6.20627 4.16699 6.6665 4.16699H17.4998C17.9601 4.16699 18.3332 4.54009 18.3332 5.00033C18.3332 5.46056 17.9601 5.83366 17.4998 5.83366H6.6665C6.20627 5.83366 5.83317 5.46056 5.83317 5.00033Z" fill="#103B66"/>
<path fill-rule="evenodd" clip-rule="evenodd" d="M5.83317 10.0003C5.83317 9.54009 6.20627 9.16699 6.6665 9.16699H17.4998C17.9601 9.16699 18.3332 9.54009 18.3332 10.0003C18.3332 10.4606 17.9601 10.8337 17.4998 10.8337H6.6665C6.20627 10.8337 5.83317 10.4606 5.83317 10.0003Z" fill="#103B66"/>
<path fill-rule="evenodd" clip-rule="evenodd" d="M5.83317 15.0003C5.83317 14.5401 6.20627 14.167 6.6665 14.167H17.4998C17.9601 14.167 18.3332 14.5401 18.3332 15.0003C18.3332 15.4606 17.9601 15.8337 17.4998 15.8337H6.6665C6.20627 15.8337 5.83317 15.4606 5.83317 15.0003Z" fill="#103B66"/>
<path fill-rule="evenodd" clip-rule="evenodd" d="M1.6665 5.00033C1.6665 4.54009 2.0396 4.16699 2.49984 4.16699H2.50817C2.96841 4.16699 3.3415 4.54009 3.3415 5.00033C3.3415 5.46056 2.96841 5.83366 2.50817 5.83366H2.49984C2.0396 5.83366 1.6665 5.46056 1.6665 5.00033Z" fill="#103B66"/>
<path fill-rule="evenodd" clip-rule="evenodd" d="M1.6665 10.0003C1.6665 9.54009 2.0396 9.16699 2.49984 9.16699H2.50817C2.96841 9.16699 3.3415 9.54009 3.3415 10.0003C3.3415 10.4606 2.96841 10.8337 2.50817 10.8337H2.49984C2.0396 10.8337 1.6665 10.4606 1.6665 10.0003Z" fill="#103B66"/>
<path fill-rule="evenodd" clip-rule="evenodd" d="M1.6665 15.0003C1.6665 14.5401 2.0396 14.167 2.49984 14.167H2.50817C2.96841 14.167 3.3415 14.5401 3.3415 15.0003C3.3415 15.4606 2.96841 15.8337 2.50817 15.8337H2.49984C2.0396 15.8337 1.6665 15.4606 1.6665 15.0003Z" fill="#103B66"/>
</svg>
