<svg width="94" height="14" viewBox="0 0 94 14" fill="none" xmlns="http://www.w3.org/2000/svg">
<g clip-path="url(#clip0)">
<path d="M3.59393 13.5999L0 3.69824H2.20953L4.70328 10.8769L7.18786 3.69824H9.40656L5.81263 13.5999H3.59393Z" fill="black"/>
<path d="M15.1908 13.8755C14.2685 13.8967 13.3571 13.672 12.5503 13.2246C11.8028 12.7989 11.1886 12.1735 10.7763 11.4185C10.3391 10.6016 10.1197 9.68596 10.1391 8.75969C10.1145 7.78323 10.3285 6.81552 10.7625 5.94047C11.1573 5.17922 11.7576 4.54395 12.4953 4.10683C13.2745 3.65604 14.1624 3.42771 15.0624 3.44672C15.9876 3.41685 16.9001 3.66776 17.6799 4.16643C18.4108 4.66121 18.9698 5.37084 19.2798 6.19718C19.6442 7.18375 19.779 8.24039 19.674 9.28686H17.4828V8.45714C17.5469 7.62561 17.348 6.79497 16.9144 6.08258C16.7029 5.82573 16.4322 5.62399 16.1256 5.49465C15.8191 5.36531 15.4857 5.31223 15.1541 5.33996C14.7756 5.31115 14.3956 5.37211 14.0452 5.51788C13.6947 5.66366 13.3835 5.89012 13.1371 6.17884C12.6497 6.89982 12.4173 7.76309 12.477 8.63133C12.4249 9.46015 12.6578 10.2818 13.1371 10.9601C13.3708 11.239 13.6669 11.459 14.0013 11.6023C14.3358 11.7457 14.6993 11.8083 15.0624 11.7852C15.5563 11.7992 16.044 11.6737 16.4697 11.423C16.8731 11.1723 17.1924 10.8067 17.3866 10.3733L19.5686 11.0334C19.2167 11.8945 18.6024 12.6227 17.8129 13.1146C17.03 13.6146 16.1197 13.8787 15.1908 13.8755ZM11.7802 9.26394V7.59533H18.5922V9.26394H11.7802Z" fill="black"/>
<path d="M20.6284 5.43149V3.6987H27.5321V5.43149H20.6284ZM27.5321 13.6003C26.8992 13.7208 26.2554 13.7746 25.6113 13.7608C25.0335 13.7573 24.4619 13.6405 23.929 13.417C23.4461 13.2123 23.0481 12.8482 22.8013 12.3856C22.5889 11.9788 22.4728 11.5287 22.4621 11.0699C22.4621 10.6115 22.4621 10.121 22.4621 9.55717V0.948242H24.6624V9.42882C24.6624 9.82916 24.6624 10.1776 24.6624 10.474C24.6609 10.7306 24.7256 10.9832 24.8504 11.2074C24.961 11.3896 25.1154 11.5411 25.2996 11.6484C25.4837 11.7557 25.6917 11.8153 25.9047 11.8217C26.4558 11.8609 27.0096 11.8363 27.555 11.7484L27.5321 13.6003Z" fill="black"/>
<path d="M29.6685 13.6V3.69831H31.6304V6.10955L31.3921 5.79783C31.5091 5.46955 31.6744 5.16054 31.8826 4.88101C32.0849 4.61278 32.3351 4.38431 32.6206 4.20715C32.8711 4.03925 33.1443 3.90804 33.432 3.8175C33.7295 3.72266 34.0373 3.66416 34.3488 3.6433C34.655 3.61923 34.9629 3.63309 35.2656 3.68456V5.7474C34.936 5.6572 34.5924 5.62922 34.2526 5.66489C33.8886 5.69103 33.5357 5.80085 33.2211 5.98578C32.9286 6.13914 32.6734 6.35514 32.4739 6.61838C32.2788 6.88128 32.1342 7.17818 32.0476 7.49394C31.9533 7.83892 31.907 8.19525 31.9101 8.55287V13.5954L29.6685 13.6Z" fill="black"/>
<path d="M37.1685 2.19512V0.168945H39.378V2.19512H37.1685ZM37.1685 13.6003V3.6987H39.378V13.6003H37.1685Z" fill="black"/>
<path d="M42.1089 13.6001V3.69846H44.08V6.7698H44.3459V13.6001H42.1089ZM48.985 13.6001V8.83264C48.9821 8.48641 48.9607 8.14058 48.9209 7.79664C48.879 7.41818 48.7785 7.04856 48.6229 6.70104C48.4721 6.35523 48.2315 6.05607 47.9261 5.83465C47.5558 5.5909 47.1173 5.47203 46.6746 5.49542C46.3914 5.49303 46.1097 5.53637 45.8403 5.62378C45.5583 5.71491 45.3022 5.87207 45.0931 6.08219C44.8462 6.3425 44.6627 6.65623 44.5568 6.99901C44.4074 7.48099 44.3392 7.98448 44.3551 8.48884L43.044 7.92958C43.0333 7.13842 43.201 6.35501 43.5345 5.63753C43.8513 4.97524 44.3486 4.41589 44.9694 4.02393C45.6761 3.59754 46.4915 3.38573 47.3164 3.41424C47.9481 3.38927 48.5766 3.51497 49.1501 3.78097C49.5944 3.99513 49.9835 4.30886 50.2869 4.69779C50.5524 5.07136 50.7538 5.48656 50.8828 5.92633C51.009 6.32185 51.0965 6.72869 51.1441 7.14111C51.1808 7.52159 51.2037 7.83331 51.2037 8.05793V13.6001H48.985Z" fill="black"/>
<path d="M56.3846 13.8758C55.7486 13.898 55.1175 13.7576 54.551 13.4678C54.0794 13.2219 53.6893 12.8445 53.4279 12.3814C53.1739 11.9245 53.0428 11.4096 53.0474 10.887C53.0397 10.446 53.1208 10.0079 53.2857 9.59884C53.4462 9.21413 53.6979 8.87428 54.0192 8.60867C54.4004 8.30248 54.8358 8.07077 55.3027 7.92564C55.754 7.78289 56.2132 7.66656 56.678 7.57725C57.2097 7.47182 57.7919 7.37555 58.4199 7.28845C59.048 7.20136 59.7035 7.10509 60.3865 6.99966L59.598 7.45806C59.6481 6.91335 59.4837 6.37059 59.1396 5.94531C58.9225 5.76314 58.6712 5.62629 58.4003 5.54283C58.1295 5.45938 57.8447 5.43101 57.5627 5.4594C57.1133 5.46066 56.6705 5.56743 56.27 5.77112C56.0585 5.87994 55.8719 6.03146 55.722 6.21609C55.5721 6.40073 55.4621 6.61447 55.399 6.8438L53.382 6.21119C53.6013 5.40368 54.0856 4.69331 54.7572 4.19419C55.5787 3.6477 56.5545 3.38083 57.5398 3.43323C58.3358 3.41643 59.1268 3.56308 59.8639 3.86413C60.5167 4.13646 61.0468 4.63885 61.3537 5.27604C61.5269 5.60874 61.6357 5.9711 61.6746 6.34413C61.7128 6.73872 61.7311 7.13498 61.7296 7.53141V13.6008H59.7952V11.4554L60.116 11.8038C59.7358 12.4512 59.1981 12.9921 58.5529 13.3761C57.883 13.7208 57.1377 13.8925 56.3846 13.8758ZM56.843 12.1155C57.2857 12.1283 57.7253 12.0372 58.1265 11.8496C58.4514 11.694 58.7403 11.4723 58.9746 11.1987C59.1601 10.9856 59.3047 10.74 59.4009 10.4744C59.5205 10.1654 59.5872 9.83836 59.598 9.50715C59.598 9.14501 59.598 8.84705 59.598 8.62242L60.2765 8.82412L58.562 9.09917C58.1036 9.1771 57.6773 9.25503 57.3335 9.32379C57.0233 9.38265 56.7171 9.46073 56.4167 9.55758C56.1862 9.63466 55.9672 9.7426 55.7657 9.87847C55.601 9.98806 55.4618 10.1319 55.3578 10.3002C55.2595 10.4699 55.2103 10.6635 55.2156 10.8595C55.2108 11.0884 55.2747 11.3135 55.399 11.5058C55.5295 11.7074 55.7159 11.8667 55.9353 11.9642C56.2113 12.0771 56.5085 12.1288 56.8063 12.1155H56.843Z" fill="black"/>
<path d="M64.3418 13.6003V0.123047H66.5513V13.6003H64.3418Z" fill="#21B8F9"/>
<path d="M69.4858 2.19512V0.168945H71.6954V2.19512H69.4858ZM69.4858 13.6003V3.6987H71.6954V13.6003H69.4858Z" fill="#21B8F9"/>
<path d="M77.1227 13.5999L73.5288 3.69824H75.7383L78.2321 10.8769L80.7167 3.69824H82.9354L79.3414 13.5999H77.1227Z" fill="#21B8F9"/>
<path d="M88.7206 13.8754C87.7982 13.8965 86.8869 13.6718 86.0801 13.2244C85.331 12.8008 84.7162 12.1749 84.3061 11.4183C83.8689 10.6014 83.6495 9.68577 83.6689 8.7595C83.6443 7.78305 83.8583 6.81534 84.2923 5.94028C84.6842 5.177 85.2852 4.54101 86.0251 4.10665C86.8043 3.65585 87.6922 3.42753 88.5922 3.44654C89.5196 3.40703 90.4372 3.65001 91.2235 4.14332C91.9531 4.63944 92.5118 5.34863 92.8233 6.17407C93.1856 7.16118 93.3203 8.21732 93.2176 9.26375H91.0264V8.45695C91.0264 7.38122 90.8369 6.59581 90.4579 6.10073C90.2459 5.84448 89.9752 5.64317 89.6687 5.51388C89.3623 5.3846 89.0292 5.33116 88.6976 5.3581C88.3191 5.32893 87.939 5.38972 87.5885 5.53552C87.2379 5.68131 86.9268 5.90798 86.6806 6.19699C86.1932 6.91797 85.9608 7.78124 86.0205 8.64948C85.9685 9.4783 86.2014 10.3 86.6806 10.9782C86.9143 11.2571 87.2104 11.4771 87.5449 11.6205C87.8793 11.7638 88.2428 11.8265 88.606 11.8033C89.0997 11.8169 89.5874 11.6914 90.0133 11.4412C90.4166 11.1904 90.7359 10.8249 90.9301 10.3914L93.1121 11.0515C92.7586 11.9116 92.1447 12.6394 91.3564 13.1327C90.5676 13.6288 89.6523 13.8867 88.7206 13.8754ZM85.31 9.26375V7.59514H92.1403V9.26375H85.31Z" fill="#21B8F9"/>
</g>
<defs>
<clipPath id="clip0">
<rect width="93.2511" height="13.7546" fill="white" transform="translate(0 0.123047)"/>
</clipPath>
</defs>
</svg>
