<svg width="20" height="20" viewBox="0 0 20 20" fill="none" xmlns="http://www.w3.org/2000/svg">
<path fill-rule="evenodd" clip-rule="evenodd" d="M0.833496 1.875C0.488318 1.875 0.208496 2.15482 0.208496 2.5V13.3333C0.208496 13.6785 0.488318 13.9583 0.833496 13.9583H2.30092C2.03141 14.3793 1.87516 14.8797 1.87516 15.4167C1.87516 16.9124 3.08772 18.125 4.5835 18.125C6.07927 18.125 7.29183 16.9124 7.29183 15.4167C7.29183 14.8797 7.13558 14.3793 6.86607 13.9583H13.1343C12.8647 14.3793 12.7085 14.8797 12.7085 15.4167C12.7085 16.9124 13.9211 18.125 15.4168 18.125C16.9126 18.125 18.1252 16.9124 18.1252 15.4167C18.1252 14.8797 17.9689 14.3793 17.6994 13.9583H19.1668C19.512 13.9583 19.7918 13.6785 19.7918 13.3333V9.16667C19.7918 9.00091 19.726 8.84194 19.6088 8.72472L17.1088 6.22472C16.9916 6.10751 16.8326 6.04167 16.6668 6.04167H13.9585V2.5C13.9585 2.15482 13.6787 1.875 13.3335 1.875H0.833496ZM15.4168 12.7083H18.5418V9.42555L16.4079 7.29167H13.9585V12.7083H15.4168ZM15.4168 13.9583C14.6114 13.9583 13.9585 14.6113 13.9585 15.4167C13.9585 16.2221 14.6114 16.875 15.4168 16.875C16.2222 16.875 16.8752 16.2221 16.8752 15.4167C16.8752 14.6113 16.2222 13.9583 15.4168 13.9583ZM3.12516 15.4167C3.12516 14.6113 3.77808 13.9583 4.5835 13.9583C5.38891 13.9583 6.04183 14.6113 6.04183 15.4167C6.04183 16.2221 5.38891 16.875 4.5835 16.875C3.77808 16.875 3.12516 16.2221 3.12516 15.4167ZM12.7085 12.7083H4.5835H1.4585V3.125H12.7085V6.66667V12.7083Z" fill="#103B66"/>
</svg>
